<svg xmlns="http://www.w3.org/2000/svg" version="1.1" xmlns:xlink="http://www.w3.org/1999/xlink" xmlns:svgjs="http://svgjs.dev/svgjs" viewBox="0 0 800 800" opacity="0.62"><defs><filter id="bbburst-blur-1" x="-100%" y="-100%" width="400%" height="400%"><feGaussianBlur in="SourceGraphic" stdDeviation="1"></feGaussianBlur></filter><filter id="bbburst-blur-2" x="-100%" y="-100%" width="400%" height="400%"><feGaussianBlur in="SourceGraphic" stdDeviation="2"></feGaussianBlur></filter><filter id="bbburst-blur-3" x="-100%" y="-100%" width="400%" height="400%"><feGaussianBlur in="SourceGraphic" stdDeviation="4"></feGaussianBlur></filter><filter id="bbburst-blur-4" x="-100%" y="-100%" width="400%" height="400%"><feGaussianBlur in="SourceGraphic" stdDeviation="12"></feGaussianBlur></filter><symbol id="bbburst-shape-1" viewBox="0 0 194 167"><path d="m97 0 96.129 166.5H.871L97 0Z"></path></symbol><symbol id="bbburst-shape-4" viewBox="0 0 149 143"><path d="M71.647 2.781c.898-2.764 4.808-2.764 5.706 0l15.445 47.534a3 3 0 0 0 2.853 2.073h49.98c2.906 0 4.115 3.719 1.764 5.427L106.96 87.193a2.999 2.999 0 0 0-1.09 3.354l15.445 47.534c.898 2.764-2.266 5.062-4.617 3.354l-40.435-29.378a3 3 0 0 0-3.526 0l-40.435 29.378c-2.351 1.708-5.515-.59-4.617-3.354L43.13 90.547a3 3 0 0 0-1.09-3.354L1.605 57.815c-2.35-1.708-1.142-5.427 1.764-5.427h49.98a3 3 0 0 0 2.853-2.073L71.647 2.781Z"></path></symbol><symbol id="bbburst-shape-6" viewBox="0 0 133 116"><path d="M59.7487 10.2513c-13.6683-13.66839-35.8291-13.66839-49.4974 0-13.66839 13.6683-13.66839 35.8291 0 49.4974l49.4974-49.4974ZM66.5 66.5 41.7513 91.2487 66.5 115.997l24.7487-24.7483L66.5 66.5Zm56.249-6.7513c13.668-13.6683 13.668-35.8291 0-49.4974-13.669-13.66839-35.8294-13.66839-49.4977 0l49.4977 49.4974Zm-112.4977 0 31.5 31.5 49.4974-49.4974-31.5-31.5-49.4974 49.4974Zm80.9974 31.5 31.5003-31.5-49.4977-49.4974-31.5 31.5 49.4974 49.4974Z"></path></symbol><symbol id="bbburst-shape-7" viewBox="0 0 139 124"><path fill-rule="evenodd" clip-rule="evenodd" d="M70.1641 15.0917C54.6093.764854 37.8293-2.10782 24.4032 2.82615 10.3804 7.97941.763366 21.4591 1.00047 37.0608c.1068 7.0273 2.86132 13.7317 7.0039 20.2001C12.1442 63.7249 17.853 70.2322 24.25 76.9024c3.8209 3.9842 7.8871 8.0312 12.0767 12.201h.0001c10.0335 9.9862 20.7748 20.6766 30.5497 32.8956 1.38 1.725 3.8972 2.005 5.6223.624.6706-.536 1.1228-1.244 1.3439-2.011 9.5768-11.748 20.0328-22.0735 29.8163-31.7351 4.19-4.1373 8.256-8.1528 12.078-12.1062 6.396-6.6176 12.106-13.0752 16.247-19.4911 4.144-6.4196 6.905-13.0811 7.012-20.0691.237-15.5124-9.399-28.8902-23.411-33.99923-13.32-4.85681-29.9542-2.08621-45.4209 11.88043Zm-3.7351 7.4919C52.1278 8.44857 37.6826 6.46918 27.1626 10.3352 16.2859 14.3323 8.8148 24.7824 8.99955 36.9392c.07575 4.9844 2.03755 10.2234 5.74165 16.0072 3.707 5.7881 8.9752 11.8418 15.2827 18.4187 3.5798 3.7328 7.4978 7.6329 11.6 11.7163 9.0476 9.0063 18.9911 18.9046 28.1786 29.8666 9.2999-11.068 19.4036-21.0473 28.5839-30.1144l.0007-.0006c4.1019-4.0508 8.0189-7.9196 11.5979-11.6222 6.307-6.5252 11.573-12.5298 15.278-18.2697 3.703-5.7362 5.658-10.924 5.734-15.8531.184-12.0276-7.267-22.3914-18.153-26.3608-10.71-3.90518-25.4722-1.80041-40.0023 12.867-1.5547 1.5694-4.0874 1.5813-5.6568.0265-.3146-.3116-.5666-.6625-.7559-1.0371Z"></path></symbol><symbol id="bbburst-shape-8" viewBox="0 0 87 168"><path d="m12 12 31.2546 18.0749c16.4102 9.4902 20.014 31.6325 7.4603 45.8369L36.3296 92.1884c-12.5684 14.2206-8.9394 36.3916 7.5068 45.8636L75 156" stroke-width="14" stroke-linecap="round" stroke-linejoin="round"></path></symbol><symbol id="bbburst-shape-10" viewBox="0 0 145 145"><circle cx="72.5" cy="72.5" r="61.5" fill="none" stroke-width="22"></circle></symbol></defs><use xlink:href="#bbburst-shape-1" width="36.76174694591372" opacity="0.18691052027018984" transform="matrix(1.2476583071963652,0.0764771108495908,-0.0764771108495908,1.2476583071963652,45.41317852646689,-151.9572491914276)" fill="#00a19d" filter="url(#bbburst-blur-3)"></use><use xlink:href="#bbburst-shape-8" width="32.69651974208089" opacity="0.3836735027441547" transform="matrix(0.8688776131405842,0.4950269622789463,-0.4950269622789463,0.8688776131405842,852.7349632935102,112.16920251587436)" fill="none" stroke="#2c2891" filter="url(#bbburst-blur-2)"></use><use xlink:href="#bbburst-shape-4" width="41.29677378907413" opacity="0.25630309830070663" transform="matrix(0.9934503496176523,-0.758654336865324,0.758654336865324,0.9934503496176523,-232.0723812559862,-112.28481186277918)" fill="#2c2891" filter="url(#bbburst-blur-3)"></use><use xlink:href="#bbburst-shape-8" width="30.437779102304617" opacity="0.3570296511654397" transform="matrix(0.8433814766979738,-0.5373152564023704,0.5373152564023704,0.8433814766979738,443.680521276569,-29.34990157274291)" fill="none" stroke="#2c2891" filter="url(#bbburst-blur-2)"></use><use xlink:href="#bbburst-shape-4" width="21.23243767183503" opacity="0.7174915702421658" transform="matrix(0.8421152219540344,0.5392976478284579,-0.5392976478284579,0.8421152219540344,726.5650646617689,14.894494913927304)" fill="#ffa6d5" filter="url(#bbburst-blur-1)"></use><use xlink:href="#bbburst-shape-10" width="37.64212835744228" opacity="0.28458341911814866" transform="matrix(1.140226293661977,0.5122343206403404,-0.5122343206403404,1.140226293661977,405.5580571619886,-334.06704028621454)" fill="none" stroke="#ffa6d5" filter="url(#bbburst-blur-3)"></use><use xlink:href="#bbburst-shape-6" width="31.25573670149062" opacity="0.3377963306505164" transform="matrix(0.8894185949274825,0.4570936041963644,-0.4570936041963644,0.8894185949274825,575.0191442589953,-260.8401032364582)" fill="#2c2891" filter="url(#bbburst-blur-2)"></use><use xlink:href="#bbburst-shape-4" width="11.993381615034812" opacity="0.8962453997434793" transform="matrix(0.8053766577207524,-0.592763392255755,0.592763392255755,0.8053766577207524,202.96307081913307,68.58069890359866)" fill="#2c2891"></use><use xlink:href="#bbburst-shape-7" width="31.09343951245428" opacity="0.4926941928286399" transform="matrix(0.733326865798981,0.6798762445456109,-0.6798762445456109,0.733326865798981,737.1085623315272,-119.0246103100267)" fill="#00a19d" filter="url(#bbburst-blur-2)"></use><use xlink:href="#bbburst-shape-10" width="18.304866626981397" opacity="0.7672987606388875" transform="matrix(0.7462628646804522,-0.6656513628010725,0.6656513628010725,0.7462628646804522,111.28393088016253,4.043990478545425)" fill="none" stroke="#00a19d" filter="url(#bbburst-blur-1)"></use><use xlink:href="#bbburst-shape-8" width="39.41205693575258" opacity="-0.07499238715189027" transform="matrix(1.6841523987995353,-0.47553201534467787,0.47553201534467787,1.6841523987995353,518.8875398031817,77.54237448322965)" fill="none" stroke="#ffa6d5" filter="url(#bbburst-blur-4)"></use><use xlink:href="#bbburst-shape-8" width="32.88662410586217" opacity="0.5550792251878132" transform="matrix(0.9846403300375388,-0.1745950184385756,0.1745950184385756,0.9846403300375388,503.71720158412825,-54.87779348391933)" fill="none" stroke="#ff5c58" filter="url(#bbburst-blur-2)"></use><use xlink:href="#bbburst-shape-10" width="34.23872362502648" opacity="0.4495084630394608" transform="matrix(0.9934811021098228,0.11399692868955699,-0.11399692868955699,0.9934811021098228,199.77454228542985,-94.25873810960098)" fill="none" stroke="#ff5c58" filter="url(#bbburst-blur-2)"></use><use xlink:href="#bbburst-shape-8" width="17.28430514175231" opacity="0.7185828495592601" transform="matrix(0.8494584295029773,-0.5276555472525001,0.5276555472525001,0.8494584295029773,303.44030399696237,99.29093123591224)" fill="none" stroke="#00a19d" filter="url(#bbburst-blur-1)"></use><use xlink:href="#bbburst-shape-8" width="39.22562644311934" opacity="0.16437957172560014" transform="matrix(1.2475947230553521,-0.0775074641853223,0.0775074641853223,1.2475947230553521,-23.241408572593713,-19.137407512722575)" fill="none" stroke="#ff5c58" filter="url(#bbburst-blur-3)"></use><use xlink:href="#bbburst-shape-8" width="31.82811264714676" opacity="0.07152315958611954" transform="matrix(1.5143074612768075,0.8771390498212868,-0.8771390498212868,1.5143074612768075,515.818886860912,140.976183926967)" fill="none" stroke="#00a19d" filter="url(#bbburst-blur-4)"></use><use xlink:href="#bbburst-shape-10" width="25.382521376178946" opacity="0.5065505928066804" transform="matrix(0.7764982942463456,0.6301193530058536,-0.6301193530058536,0.7764982942463456,639.1301866473709,-140.62742857443988)" fill="none" stroke="#00a19d" filter="url(#bbburst-blur-2)"></use><use xlink:href="#bbburst-shape-1" width="12.816307781632473" opacity="0.9364375474189945" transform="matrix(0.8056142287002402,0.5924404733943461,-0.5924404733943461,0.8056142287002402,616.1952496871132,50.00228095905129)" fill="#2c2891"></use><use xlink:href="#bbburst-shape-4" width="18.900069279022294" opacity="0.7227891278944667" transform="matrix(0.8386971907398266,-0.5445980373129552,0.5445980373129552,0.8386971907398266,159.36575318665155,193.5364128280503)" fill="#ffa6d5" filter="url(#bbburst-blur-1)"></use><use xlink:href="#bbburst-shape-10" width="12.94233205925502" opacity="0.8805413002075055" transform="matrix(0.9501073419298849,0.3119231296504458,-0.3119231296504458,0.9501073419298849,471.68883930517575,-8.274559617838008)" fill="none" stroke="#00a19d"></use><use xlink:href="#bbburst-shape-10" width="37.4491151590817" opacity="0.06230150291078851" transform="matrix(1.7288168680282987,-0.27146314081440903,0.27146314081440903,1.7288168680282987,616.6359346398357,-62.431475201698504)" fill="none" stroke="#ffbd9b" filter="url(#bbburst-blur-4)"></use><use xlink:href="#bbburst-shape-4" width="31.697060075765027" opacity="0.4598567121511693" transform="matrix(0.9997634667620733,-0.021748805205824007,0.021748805205824007,0.9997634667620733,212.88098302179654,181.16013737989488)" fill="#ffbd9b" filter="url(#bbburst-blur-2)"></use><use xlink:href="#bbburst-shape-10" width="31.851661195691257" opacity="0.278329748984266" transform="matrix(1.141930891308315,0.5084228943269543,-0.5084228943269543,1.141930891308315,608.4578458166586,259.0470611646973)" fill="none" stroke="#00a19d" filter="url(#bbburst-blur-3)"></use><use xlink:href="#bbburst-shape-1" width="35.196805637620436" opacity="0.273094346778051" transform="matrix(1.2225633795807807,0.26045879310942877,-0.26045879310942877,1.2225633795807807,329.1406925525858,195.29282703213704)" fill="#2c2891" filter="url(#bbburst-blur-3)"></use><use xlink:href="#bbburst-shape-8" width="25.972229644121064" opacity="0.5313580107847065" transform="matrix(0.7168255205017044,0.6972525892081438,-0.6972525892081438,0.7168255205017044,659.6951449333756,314.8717286104782)" fill="none" stroke="#00a19d" filter="url(#bbburst-blur-2)"></use><use xlink:href="#bbburst-shape-8" width="47.23817380465101" opacity="0.0748633960590529" transform="matrix(1.5330643842916822,0.8439274812543822,-0.8439274812543822,1.5330643842916822,943.3596639364321,-571.9093214225368)" fill="none" stroke="#ffa6d5" filter="url(#bbburst-blur-4)"></use><use xlink:href="#bbburst-shape-8" width="12.601748980226501" opacity="0.9121166940811228" transform="matrix(0.965589195179638,-0.26007211721431966,0.26007211721431966,0.965589195179638,250.74916477130097,21.079631212119523)" fill="none" stroke="#00a19d"></use><use xlink:href="#bbburst-shape-4" width="20.883788522048206" opacity="0.706767870050698" transform="matrix(0.9894693662372092,-0.1447424377234809,0.1447424377234809,0.9894693662372092,404.5903302372476,115.7866210481705)" fill="#ffa6d5" filter="url(#bbburst-blur-1)"></use><use xlink:href="#bbburst-shape-8" width="10.992229394590783" opacity="0.9469106799573334" transform="matrix(0.9072673923971807,-0.4205542517830729,0.4205542517830729,0.9072673923971807,241.60391734227173,20.66026426056669)" fill="none" stroke="#ffa6d5"></use><use xlink:href="#bbburst-shape-4" width="16.492289503082034" opacity="0.865523599545353" transform="matrix(0.8620843113026389,0.5067648766497683,-0.5067648766497683,0.8620843113026389,621.6466186105337,105.6172939004195)" fill="#ffbd9b"></use><use xlink:href="#bbburst-shape-10" width="34.49076248421321" opacity="0.27286765518406053" transform="matrix(1.1912455357616212,-0.37872691154446386,0.37872691154446386,1.1912455357616212,375.1985350544875,222.24635078855022)" fill="none" stroke="#ffbd9b" filter="url(#bbburst-blur-3)"></use><use xlink:href="#bbburst-shape-4" width="24.731317566929867" opacity="0.5983873595952915" transform="matrix(0.9496604759163174,-0.3132809928520937,0.3132809928520937,0.9496604759163174,155.3401975931834,169.2260917504243)" fill="#00a19d" filter="url(#bbburst-blur-1)"></use><use xlink:href="#bbburst-shape-10" width="26.687226321918033" opacity="0.6414787589179256" transform="matrix(0.8519751752276327,-0.5235821815110258,0.5235821815110258,0.8519751752276327,340.53057839055214,67.12820869469499)" fill="none" stroke="#00a19d" filter="url(#bbburst-blur-1)"></use><use xlink:href="#bbburst-shape-4" width="16.024031762627843" opacity="0.7280767994868362" transform="matrix(0.7528333753479263,0.6582111431465197,-0.6582111431465197,0.7528333753479263,534.9333215219324,89.91580033152582)" fill="#2c2891" filter="url(#bbburst-blur-1)"></use><use xlink:href="#bbburst-shape-6" width="51.60722471700772" opacity="0.19617916410981118" transform="matrix(1.210503750608935,-0.311738142936827,0.311738142936827,1.210503750608935,502.18530182103325,177.25424690853401)" fill="#ffbd9b" filter="url(#bbburst-blur-3)"></use><use xlink:href="#bbburst-shape-6" width="23.33506258794386" opacity="0.8013902920270276" transform="matrix(0.9279159581862296,0.37278945068675345,-0.37278945068675345,0.9279159581862296,607.8807987030771,80.5626913396647)" fill="#2c2891"></use><use xlink:href="#bbburst-shape-10" width="14.971809535436842" opacity="0.7717807212294618" transform="matrix(0.8750864623714237,-0.48396661390458207,0.48396661390458207,0.8750864623714237,151.9727181416146,144.43756977334039)" fill="none" stroke="#ff5c58" filter="url(#bbburst-blur-1)"></use><use xlink:href="#bbburst-shape-10" width="28.204551022932343" opacity="0.41605093267119153" transform="matrix(0.9831678492072202,-0.18270462579050537,0.18270462579050537,0.9831678492072202,469.27470542410504,220.60693632461056)" fill="none" stroke="#00a19d" filter="url(#bbburst-blur-2)"></use><use xlink:href="#bbburst-shape-8" width="31.023466447120324" opacity="0.32995030630489974" transform="matrix(1.0823962061421326,0.6252347182691615,-0.6252347182691615,1.0823962061421326,335.3449852719011,3.56146965959573)" fill="none" stroke="#ffa6d5" filter="url(#bbburst-blur-3)"></use><use xlink:href="#bbburst-shape-10" width="34.38672355845594" opacity="0.4420224630877989" transform="matrix(0.7479207984809344,0.6637879775949859,-0.6637879775949859,0.7479207984809344,715.9316289183739,332.40519506214406)" fill="none" stroke="#2c2891" filter="url(#bbburst-blur-2)"></use><use xlink:href="#bbburst-shape-4" width="40.26092556018666" opacity="0.38588841779158767" transform="matrix(0.9744360442516206,0.22466507441801853,-0.22466507441801853,0.9744360442516206,697.2260613008426,163.36991622383846)" fill="#2c2891" filter="url(#bbburst-blur-2)"></use><use xlink:href="#bbburst-shape-4" width="24.286375902391512" opacity="0.6529108531269108" transform="matrix(0.9308423151015023,-0.365421105598015,0.365421105598015,0.9308423151015023,269.45988230761816,185.97308580072018)" fill="#ffbd9b" filter="url(#bbburst-blur-1)"></use><use xlink:href="#bbburst-shape-1" width="13.795180750202457" opacity="0.8471128490525731" transform="matrix(0.9762363072178623,0.2167087272576528,-0.2167087272576528,0.9762363072178623,516.2532848561582,-50.41088057962372)" fill="#ff5c58"></use><use xlink:href="#bbburst-shape-8" width="41.709570887449935" opacity="-0.08642010827572455" transform="matrix(1.7477217113496912,-0.08926824562467255,0.08926824562467255,1.7477217113496912,-15.89482061911145,50.41634964410002)" fill="none" stroke="#ffa6d5" filter="url(#bbburst-blur-4)"></use><use xlink:href="#bbburst-shape-8" width="34.67018712606615" opacity="0.17336957442973944" transform="matrix(1.224807011662478,0.24969538278156148,-0.24969538278156148,1.224807011662478,365.45739597845835,-448.59605534720754)" fill="none" stroke="#ffa6d5" filter="url(#bbburst-blur-3)"></use><use xlink:href="#bbburst-shape-4" width="32.99044451401465" opacity="0.3394619011434473" transform="matrix(0.9957826889800107,0.09174331761899303,-0.09174331761899303,0.9957826889800107,189.53902747983557,-187.19088392898487)" fill="#ffa6d5" filter="url(#bbburst-blur-2)"></use><use xlink:href="#bbburst-shape-1" width="24.78967727371331" opacity="0.5035229523546747" transform="matrix(0.9956191303250846,-0.09350158999034232,0.09350158999034232,0.9956191303250846,184.14893687350855,-146.4578110008287)" fill="#00a19d" filter="url(#bbburst-blur-2)"></use><use xlink:href="#bbburst-shape-7" width="16.10418605130837" opacity="0.870817169524494" transform="matrix(0.8285318026000561,0.5599420077832183,-0.5599420077832183,0.8285318026000561,616.9030799808572,5.910674080757076)" fill="#ffbd9b"></use><use xlink:href="#bbburst-shape-6" width="26.585908983805343" opacity="0.3688611211822902" transform="matrix(0.9999240247407324,0.012326586968631847,-0.012326586968631847,0.9999240247407324,342.2317044537356,279.5488700375365)" fill="#ffbd9b" filter="url(#bbburst-blur-2)"></use><use xlink:href="#bbburst-shape-4" width="27.32246677076178" opacity="0.4218399255224511" transform="matrix(0.9869718840308687,-0.16089282188014972,0.16089282188014972,0.9869718840308687,90.30700571375962,125.46774256468001)" fill="#ff5c58" filter="url(#bbburst-blur-2)"></use><use xlink:href="#bbburst-shape-4" width="23.04612456405769" opacity="0.6417637216364211" transform="matrix(0.9259187551078826,-0.37772272759190567,0.37772272759190567,0.9259187551078826,130.18439975701224,-85.61767853455888)" fill="#2c2891" filter="url(#bbburst-blur-1)"></use><use xlink:href="#bbburst-shape-1" width="19.545899283041162" opacity="0.7056525448972553" transform="matrix(0.9995162721692258,-0.031100187602876774,0.031100187602876774,0.9995162721692258,281.6996958223395,91.68653900391894)" fill="#ffa6d5" filter="url(#bbburst-blur-1)"></use><use xlink:href="#bbburst-shape-8" width="26.971656126743426" opacity="0.4425467263872678" transform="matrix(0.9245653484751092,0.38102351160932296,-0.38102351160932296,0.9245653484751092,743.7779680802322,-121.17724226569123)" fill="none" stroke="#00a19d" filter="url(#bbburst-blur-2)"></use><use xlink:href="#bbburst-shape-10" width="37.2281297111669" opacity="0.15122776563790352" transform="matrix(0.9637013788047765,0.7961027901532394,-0.7961027901532394,0.9637013788047765,830.9576198450932,-359.2775474904966)" fill="none" stroke="#2c2891" filter="url(#bbburst-blur-3)"></use><use xlink:href="#bbburst-shape-6" width="29.654582588003453" opacity="0.3861617641674272" transform="matrix(0.9946257504129784,0.1035355813979886,-0.1035355813979886,0.9946257504129784,152.25897340811767,-31.03845288559711)" fill="#ff5c58" filter="url(#bbburst-blur-2)"></use><use xlink:href="#bbburst-shape-8" width="14.339039793538529" opacity="0.9401925493403612" transform="matrix(0.8156639866087054,0.5785259380093459,-0.5785259380093459,0.8156639866087054,634.3187989622813,95.03573614515784)" fill="none" stroke="#2c2891"></use><use xlink:href="#bbburst-shape-6" width="34.52420953617104" opacity="0.16284657596203367" transform="matrix(1.1458639267465707,-0.4994956069685994,0.4994956069685994,1.1458639267465707,539.3267501574746,-164.1979648708134)" fill="#ffbd9b" filter="url(#bbburst-blur-3)"></use><use xlink:href="#bbburst-shape-7" width="15.86815840159453" opacity="0.8885142132979472" transform="matrix(0.8775253532359164,0.47953024349688317,-0.47953024349688317,0.8775253532359164,630.167186683593,66.57571985123639)" fill="#ff5c58"></use><use xlink:href="#bbburst-shape-4" width="17.019934966320015" opacity="0.7602670299348961" transform="matrix(0.9933984272114955,0.11471514640066936,-0.11471514640066936,0.9933984272114955,469.50766781610787,-101.32079092044751)" fill="#ffa6d5" filter="url(#bbburst-blur-1)"></use><use xlink:href="#bbburst-shape-1" width="29.06227985737878" opacity="0.5736780396315838" transform="matrix(0.852932235853089,0.5220216480593987,-0.5220216480593987,0.852932235853089,681.2517041402529,223.33102616080703)" fill="#00a19d" filter="url(#bbburst-blur-1)"></use><use xlink:href="#bbburst-shape-6" width="45.87205482139589" opacity="0.14042500426007298" transform="matrix(1.200883222091357,-0.34695747131237986,0.34695747131237986,1.200883222091357,-51.953022782005135,-333.23654318274214)" fill="#00a19d" filter="url(#bbburst-blur-3)"></use><use xlink:href="#bbburst-shape-8" width="48.32051397544211" opacity="0.30621330841167504" transform="matrix(1.2196007718778956,0.2739962723009954,-0.2739962723009954,1.2196007718778956,660.8193298449646,-349.06505376412605)" fill="none" stroke="#ff5c58" filter="url(#bbburst-blur-3)"></use><use xlink:href="#bbburst-shape-4" width="34.86907828650128" opacity="0.060126715789926566" transform="matrix(1.4272107109649457,-1.012704096223045,1.012704096223045,1.4272107109649457,322.6274217870545,-386.8115908411387)" fill="#ffa6d5" filter="url(#bbburst-blur-4)"></use><use xlink:href="#bbburst-shape-6" width="19.069225913670422" opacity="0.7849142028461348" transform="matrix(0.9898764574797547,-0.14193166992370432,0.14193166992370432,0.9898764574797547,248.04310313604228,50.298624118324426)" fill="#ffbd9b"></use><use xlink:href="#bbburst-shape-4" width="20.48551666849989" opacity="0.6789725209324586" transform="matrix(0.7845334998020205,0.6200864356590886,-0.6200864356590886,0.7845334998020205,759.5540488142154,160.92476484196442)" fill="#00a19d" filter="url(#bbburst-blur-1)"></use><use xlink:href="#bbburst-shape-4" width="10.953407490329472" opacity="0.9681464872266773" transform="matrix(0.7514355114495983,-0.6598065414441423,0.6598065414441423,0.7514355114495983,121.64917818032097,112.99553497626374)" fill="#ffbd9b"></use><use xlink:href="#bbburst-shape-1" width="33.33901162042495" opacity="0.2339107304325324" transform="matrix(1.1001507233943681,-0.5934377691172418,0.5934377691172418,1.1001507233943681,-165.01157557231045,122.080034042595)" fill="#ffa6d5" filter="url(#bbburst-blur-3)"></use><use xlink:href="#bbburst-shape-10" width="23.86149177333745" opacity="0.18448594623514858" transform="matrix(1.1082465012351064,0.5781779073089404,-0.5781779073089404,1.1082465012351064,621.3211061136294,-417.1634325381899)" fill="none" stroke="#00a19d" filter="url(#bbburst-blur-3)"></use><use xlink:href="#bbburst-shape-1" width="35.44385254660118" opacity="0.17727304261613386" transform="matrix(1.1142431742675172,0.5665352139084093,-0.5665352139084093,1.1142431742675172,533.3796607161171,307.17913765065964)" fill="#ffbd9b" filter="url(#bbburst-blur-3)"></use><use xlink:href="#bbburst-shape-10" width="25.86084661094093" opacity="0.6272024368866935" transform="matrix(0.8682443712143246,0.4961367874433846,-0.4961367874433846,0.8682443712143246,533.9327593215899,205.35513560804702)" fill="none" stroke="#00a19d" filter="url(#bbburst-blur-1)"></use><use xlink:href="#bbburst-shape-4" width="14.33415421600482" opacity="0.8377930595058581" transform="matrix(0.7969903781482698,0.603992000889977,-0.603992000889977,0.7969903781482698,597.5857498753741,14.742031357994392)" fill="#ffbd9b"></use><use xlink:href="#bbburst-shape-4" width="45.31584448269674" opacity="0.056262087152225804" transform="matrix(1.5903007319029454,0.7303722216164553,-0.7303722216164553,1.5903007319029454,295.75591673591725,-27.843338079508044)" fill="#2c2891" filter="url(#bbburst-blur-4)"></use><use xlink:href="#bbburst-shape-4" width="26.694435655584602" opacity="0.6344954567674401" transform="matrix(0.9544039975225773,-0.2985180220906673,0.2985180220906673,0.9544039975225773,335.14523702794907,-127.8393189749435)" fill="#ffa6d5" filter="url(#bbburst-blur-1)"></use><use xlink:href="#bbburst-shape-4" width="40.30749232981306" opacity="0.06865830039289189" transform="matrix(1.7499988914820692,0.0019697237189484347,-0.0019697237189484347,1.7499988914820692,587.6448694763035,55.42303247098516)" fill="#ffbd9b" filter="url(#bbburst-blur-4)"></use><use xlink:href="#bbburst-shape-6" width="42.28874813503344" opacity="0.13446366822561462" transform="matrix(1.217226476302566,-0.28435841008846424,0.28435841008846424,1.217226476302566,-11.732604298827042,197.65874693865783)" fill="#00a19d" filter="url(#bbburst-blur-3)"></use><use xlink:href="#bbburst-shape-4" width="24.725636816306608" opacity="0.6186355325355598" transform="matrix(0.9857791211484915,0.16804619694508904,-0.16804619694508904,0.9857791211484915,591.1124462827202,-100.92471342791339)" fill="#ffa6d5" filter="url(#bbburst-blur-1)"></use><use xlink:href="#bbburst-shape-7" width="28.730503453382056" opacity="0.5095852522200862" transform="matrix(0.8320481302399657,0.5547034423583262,-0.5547034423583262,0.8320481302399657,393.07304981378854,100.51215024944162)" fill="#ffbd9b" filter="url(#bbburst-blur-2)"></use><use xlink:href="#bbburst-shape-4" width="42.89495323175197" opacity="0.06124847910923148" transform="matrix(1.367460476228143,-1.092040221765618,1.092040221765618,1.367460476228143,-295.775014318202,-478.05759753404357)" fill="#00a19d" filter="url(#bbburst-blur-4)"></use><use xlink:href="#bbburst-shape-4" width="16.75864573465385" opacity="0.8148662952034161" transform="matrix(0.9995705169316341,-0.0293049770691907,0.0293049770691907,0.9995705169316341,451.6274061028049,-41.94850850566735)" fill="#00a19d"></use><use xlink:href="#bbburst-shape-10" width="24.06457720352939" opacity="0.7245273286594882" transform="matrix(0.7883845831997902,-0.6151826956058608,0.6151826956058608,0.7883845831997902,226.60784820171185,-0.7705969476898531)" fill="none" stroke="#ffa6d5" filter="url(#bbburst-blur-1)"></use><use xlink:href="#bbburst-shape-4" width="23.85713973947256" opacity="0.5794417358423616" transform="matrix(0.7311265069724239,-0.6822419151608191,0.6822419151608191,0.7311265069724239,-69.90802851829824,96.79963505304664)" fill="#2c2891" filter="url(#bbburst-blur-1)"></use><use xlink:href="#bbburst-shape-1" width="33.77380399635672" opacity="0.33129430771438517" transform="matrix(1.03554996921868,-0.7000973226996309,0.7000973226996309,1.03554996921868,192.38279512585194,-289.53398883594843)" fill="#2c2891" filter="url(#bbburst-blur-3)"></use><use xlink:href="#bbburst-shape-10" width="41.05480037965507" opacity="0.24421464128567782" transform="matrix(0.939359491062056,0.8246840283112287,-0.8246840283112287,0.939359491062056,978.8697483511755,-201.71031996674913)" fill="none" stroke="#00a19d" filter="url(#bbburst-blur-3)"></use><use xlink:href="#bbburst-shape-8" width="20.2664505137502" opacity="0.7384982985791644" transform="matrix(0.9574715677188707,-0.2885276364752049,0.2885276364752049,0.9574715677188707,212.48014269936834,-79.8296982245401)" fill="none" stroke="#ff5c58" filter="url(#bbburst-blur-1)"></use><use xlink:href="#bbburst-shape-8" width="25.085451105563333" opacity="0.4787596025100741" transform="matrix(0.8458501336712216,-0.5334206139327355,0.5334206139327355,0.8458501336712216,57.637563470793225,-134.14036528047583)" fill="none" stroke="#ffbd9b" filter="url(#bbburst-blur-2)"></use><use xlink:href="#bbburst-shape-8" width="22.81262751021741" opacity="0.6656482001650044" transform="matrix(0.8367765831769877,0.5475444729395467,-0.5475444729395467,0.8367765831769877,465.23351863560066,101.85277451573302)" fill="none" stroke="#00a19d" filter="url(#bbburst-blur-1)"></use><use xlink:href="#bbburst-shape-4" width="32.22114061776735" opacity="0.5775544893051668" transform="matrix(0.9004820005061311,0.43489328204109573,-0.43489328204109573,0.9004820005061311,398.55691431822834,134.0975434189416)" fill="#2c2891" filter="url(#bbburst-blur-1)"></use><use xlink:href="#bbburst-shape-10" width="26.858948699985596" opacity="0.47569182547590483" transform="matrix(0.9438939001454697,0.33024885354558625,-0.33024885354558625,0.9438939001454697,755.2069310943132,9.44792858676766)" fill="none" stroke="#ffa6d5" filter="url(#bbburst-blur-2)"></use><use xlink:href="#bbburst-shape-6" width="25.398089938958346" opacity="0.6550462825860679" transform="matrix(0.96348075147587,-0.2677775971501218,0.2677775971501218,0.96348075147587,285.43630886456583,-137.1469808112982)" fill="#ff5c58" filter="url(#bbburst-blur-1)"></use><use xlink:href="#bbburst-shape-10" width="46.411012097761244" opacity="-0.08562314826647954" transform="matrix(1.6895597254270551,0.45594729324216227,-0.45594729324216227,1.6895597254270551,888.900207425819,-631.5621142525282)" fill="none" stroke="#00a19d" filter="url(#bbburst-blur-4)"></use><use xlink:href="#bbburst-shape-8" width="20.401398140699147" opacity="0.8057277292634657" transform="matrix(0.9725596323201565,-0.23265373751840313,0.23265373751840313,0.9725596323201565,384.383346907853,16.502764073775438)" fill="none" stroke="#00a19d"></use><use xlink:href="#bbburst-shape-8" width="34.16326280763331" opacity="0.21117048206008227" transform="matrix(1.2200860871589745,0.27182704045238676,-0.27182704045238676,1.2200860871589745,813.6364829585098,48.37225427929809)" fill="none" stroke="#ffa6d5" filter="url(#bbburst-blur-3)"></use><use xlink:href="#bbburst-shape-7" width="36.34329735388184" opacity="0.37641747913704526" transform="matrix(0.9913557030650455,-0.13120163871083818,0.13120163871083818,0.9913557030650455,253.20103085414988,-264.2285474382695)" fill="#00a19d" filter="url(#bbburst-blur-2)"></use><use xlink:href="#bbburst-shape-6" width="19.05591672297638" opacity="0.7095504297806554" transform="matrix(0.9458642065793363,-0.32456263295709575,0.32456263295709575,0.9458642065793363,142.47192436484204,-29.984705933650844)" fill="#ffa6d5" filter="url(#bbburst-blur-1)"></use><use xlink:href="#bbburst-shape-8" width="27.97676009596045" opacity="0.5021874154536536" transform="matrix(0.9821464645407356,-0.18811784123291844,0.18811784123291844,0.9821464645407356,449.08866066987673,-166.63137619434406)" fill="none" stroke="#ffa6d5" filter="url(#bbburst-blur-2)"></use><use xlink:href="#bbburst-shape-8" width="15.532318123132875" opacity="0.8568216799809674" transform="matrix(0.807657732345323,-0.5896515813451284,0.5896515813451284,0.807657732345323,144.56322057475523,144.5580126746209)" fill="none" stroke="#2c2891"></use><use xlink:href="#bbburst-shape-7" width="52.57781249375395" opacity="-0.08431436531907033" transform="matrix(1.7337216266894562,0.23813718976519782,-0.23813718976519782,1.7337216266894562,100.91207672143213,-641.4006666229577)" fill="#00a19d" filter="url(#bbburst-blur-4)"></use><use xlink:href="#bbburst-shape-10" width="28.36301214609454" opacity="0.5593276527496457" transform="matrix(0.9057033573889163,-0.4239120526883435,0.4239120526883435,0.9057033573889163,365.0167400714126,176.35592616521154)" fill="none" stroke="#2c2891" filter="url(#bbburst-blur-1)"></use><use xlink:href="#bbburst-shape-4" width="18.280129389135872" opacity="0.8309805251685495" transform="matrix(0.8816966711458984,0.47181668059770987,-0.47181668059770987,0.8816966711458984,504.6344012787497,45.26697334750543)" fill="#00a19d"></use><use xlink:href="#bbburst-shape-6" width="20.080567246548558" opacity="0.7978558587196047" transform="matrix(0.9940983803566144,0.1084823034985709,-0.1084823034985709,0.9940983803566144,354.97203707743046,-44.79134319998502)" fill="#ff5c58"></use><use xlink:href="#bbburst-shape-8" width="12.783224314499977" opacity="0.8696103079999136" transform="matrix(0.943341665084001,0.3318229993785008,-0.3318229993785008,0.943341665084001,483.74110197508594,60.509361873074624)" fill="none" stroke="#ff5c58"></use><use xlink:href="#bbburst-shape-1" width="25.586863221919433" opacity="0.5499006415608394" transform="matrix(0.9205988026230079,0.39050972409030243,-0.39050972409030243,0.9205988026230079,734.8365325536042,95.81212970344035)" fill="#ffa6d5" filter="url(#bbburst-blur-2)"></use><use xlink:href="#bbburst-shape-8" width="36.929269476904544" opacity="0.26549530490419126" transform="matrix(1.062000600190414,0.6592834937985331,-0.6592834937985331,1.062000600190414,973.9404325414838,-58.32908846991205)" fill="none" stroke="#ffbd9b" filter="url(#bbburst-blur-3)"></use><use xlink:href="#bbburst-shape-10" width="16.159150174428333" opacity="0.7865779017830766" transform="matrix(0.770077439992458,0.6379504184610763,-0.6379504184610763,0.770077439992458,671.7502306804357,180.1109226659267)" fill="none" stroke="#00a19d"></use><use xlink:href="#bbburst-shape-8" width="31.76317407943669" opacity="0.16193686377782002" transform="matrix(1.2317898647447127,0.21258816785560336,-0.21258816785560336,1.2317898647447127,558.3493368244788,269.4207776089539)" fill="none" stroke="#ffa6d5" filter="url(#bbburst-blur-3)"></use><use xlink:href="#bbburst-shape-1" width="29.609311777401103" opacity="0.3124380202532733" transform="matrix(1.2385673490275797,-0.1686740108101821,0.1686740108101821,1.2385673490275797,86.88125277656687,117.01318407058045)" fill="#ffa6d5" filter="url(#bbburst-blur-3)"></use><use xlink:href="#bbburst-shape-4" width="28.191438635699704" opacity="0.6064013932532168" transform="matrix(0.7770671926752322,0.6294176499494065,-0.6294176499494065,0.7770671926752322,584.0455478336846,-87.460135250158)" fill="#2c2891" filter="url(#bbburst-blur-1)"></use><use xlink:href="#bbburst-shape-1" width="44.6145552633535" opacity="0.0763715412271262" transform="matrix(1.65523509574556,0.5680640613629659,-0.5680640613629659,1.65523509574556,227.28107913128287,-477.13145833284364)" fill="#ff5c58" filter="url(#bbburst-blur-4)"></use><use xlink:href="#bbburst-shape-6" width="25.163367503211752" opacity="0.5963497192153151" transform="matrix(0.9805105041671867,-0.19646666693821002,0.19646666693821002,0.9805105041671867,145.49459021448402,-68.69323514580617)" fill="#00a19d" filter="url(#bbburst-blur-1)"></use><use xlink:href="#bbburst-shape-8" width="29.027789156991766" opacity="0.46223845300184496" transform="matrix(0.9953193644311086,0.09664037866468714,-0.09664037866468714,0.9953193644311086,326.01917677288236,221.64600480253227)" fill="none" stroke="#00a19d" filter="url(#bbburst-blur-2)"></use><use xlink:href="#bbburst-shape-6" width="26.7096041150275" opacity="0.180537736798299" transform="matrix(0.9995761646781188,0.750564781352937,-0.750564781352937,0.9995761646781188,1051.2153419951546,47.06469612668985)" fill="#2c2891" filter="url(#bbburst-blur-3)"></use></svg>