<svg xmlns="http://www.w3.org/2000/svg" version="1.1" xmlns:xlink="http://www.w3.org/1999/xlink" xmlns:svgjs="http://svgjs.dev/svgjs" viewBox="0 0 800 800"><defs><linearGradient x1="50%" y1="0%" x2="50%" y2="100%" id="ssscribble-grad"><stop stop-color="hsl(184, 74%, 44%)" stop-opacity="1" offset="0%"></stop><stop stop-color="hsl(332, 87%, 70%)" stop-opacity="1" offset="100%"></stop></linearGradient></defs><g fill="none" stroke-width="1.5" stroke="url(#ssscribble-grad)" stroke-linecap="round"><path d="M1006.63 621.34C1085.86 654.2 1096.69 688.7 1040.47 722.44 935.72 753.73 811.07 779.61 698.32 795.24 618.7 802.72 585.12 794.2 594.34 767.22 641.15 732.33 704.57 683.75 766.72 629.48 824.76 588.42 860.54 563.56 871.94 568.34 865.57 611.56 839.28 691.57 800.66 800.19 752.79 917.02 701.97 1020.72 654.18 1084.72 604.49 1093.57 561.91 1040.85 529.05 937.45 496.18 816.64 474.6 711.33 462.32 647.68 448.14 639.25 439.18 680.81 430.11 754.72 411.78 846.57 383.95 926.94 339.67 978.95 277.62 999.66 194.67 981.51 93.56 932.3 -11.65 858.94 -114.03 772.96 -195.05 685.81 -238.49 597.12 -234.39 518.04 -178.86 451.05 -90.19 389.27 15.75 337.96 107.81 294.93 151.35 254.08 133.86 217.72 54.63 184.86 -65.41 152 -182.79 124.19 -262.17 103.07 -286.98 84.12 -247.68 75.65 -159.24 80.48 -42.3 90.52 75.96 115.48 173.36 153.52 253.41 209.43 214.51 254.88 154.54 189.56 113.25 103.33 85.91 -6.49 74.56 -122.43 69.23 -220.43 77.96 -280.71 97.46 -284.96 119.41 -234.01 147.78 -135.37 180.64 -14.57 213.5 88.84 249.3 148.24 289.32 152.08 331.8 100.77 382.84 15.78 445.12 -76.96 513.42 -161.49 594.87 -212.04 686.81 -221.06 776.95 -191.62 865.07 -127.81 938.19 -43.69 983.83 53.64 994.41 149.4 962.76 234.94 899.59 312.57 810.79 375.2 717.93 424.68 653.58 465.99 632.98 499.9 670.47 530.58 762.54 558.81 886.58 588.48 1006.63 621.34Q1006.63 621.34 1006.63 621.34" opacity="0.21"></path><path d="M972.63 614.45C1048.19 644.96 1065.14 670.71 1023.11 690.3 935.25 708.01 822.52 716.25 711 712.54 619.14 704.13 562.11 681.91 542.46 646.97 559.14 612.04 599.51 572.41 649.51 536.79 706.92 519.88 753.84 523.61 784.35 556.29 804.63 619.81 806.5 710.52 793.62 817.92 772.52 923.35 743.11 1009.82 710.34 1056.97 675.3 1055.21 641.32 1000.72 610.81 903.45 580.3 791.11 554.69 690.17 532.19 622.6 507.41 600.98 481.31 623.97 449.53 679.94 409.54 759.47 357.41 838.53 290.1 901.23 212.57 944.15 121.84 955.4 24.43 937.4 -65.55 895.45 -142.09 834.95 -190.55 765.57 -202.68 688.2 -173.01 613.06 -103.52 545.07 -14.37 477.99 80.99 420.18 157.07 372.11 187.32 325.13 164.19 286.27 88.63 255.75 -22.24 225.24 -132.81 204.51 -213.97 193.95 -251.51 184.47 -233.46 186.77 -168.28 200.97 -70.22 216.07 40.36 240.97 143.48 271.31 228.77 293.67 285.5 310.36 314 312.32 315.85 290.34 300.08 242.91 276.76 168.23 244.21 73.76 216.83 -32.66 199.58 -134.55 183.39 -212.9 179.78 -253.27 188.54 -243.43 198.57 -187.65 219.09 -92.9 249.6 19.42 280.11 116.71 319.18 177.39 366.7 190.95 415.48 155.58 474.6 86.49 543.67 3.42 613.79 -81.61 691.43 -144.95 771.01 -176.71 841.35 -177.62 900.93 -145.18 939.08 -88.29 950.57 -12.68 930.01 70.75 876.5 152.71 805.16 234.68 721.93 307.14 646.23 368.44 603.42 425.03 602.75 472.3 652.06 512.14 744.99 550.1 861.74 583.93 972.63 614.45Q972.63 614.45 972.63 614.45" opacity="0.52"></path><path d="M938.63 542.64C1010.18 570.81 1032.14 589.89 1003.1 599.63 932.14 608.44 833.8 606.48 728.66 593.6 631.76 579.73 558.32 556.33 514.44 526.77 501.55 503.02 514.23 481.9 542.99 471.05 586.35 479.96 629.49 509.85 664.98 564.48 698.13 640.9 717.63 734.79 723.49 835.14 724.14 926.15 713.88 994.9 695.52 1026.4 675.29 1015.6 650.35 960.37 622.18 869.45 594.01 765.66 563.96 669.86 531.07 600.16 496.3 567.69 455.33 573.67 405.86 611.15 351.19 674.66 285.31 745.71 208.75 810.54 129.84 866.32 46.27 899.31 -34 908.03 -99.67 896.79 -145.75 865.34 -162.19 820.48 -147.64 764.55 -99.45 704.51 -23.2 646.05 61.28 585.1 143.59 530.05 203.68 483.3 221.85 436.53 194.18 398.47 122.63 370.3 20.87 342.13 -82.24 325.19 -163.25 318.83 -210.56 312.47 -211.24 316.28 -168.97 328.41 -93.02 338.05 2.79 351.72 101.91 364.24 195.45 365.69 270.99 356.71 324.61 331.04 356.82 285.41 369.85 219.03 370.27 133.93 358.08 39.77 343.6 -56.53 332.67 -140.69 318.85 -198.82 313.56 -220.84 318.89 -199.26 324.21 -140.44 340.61 -50.36 368.77 53.42 396.94 144.35 435.54 205.3 483.34 226.99 531.14 206.36 587.66 153.65 650.3 83.29 710.04 3.58 770.91 -65.05 826.51 -112.14 869.5 -137.45 896.91 -133.94 901.61 -105.94 884.91 -58.17 842.77 3.38 778.55 70.53 708.76 143.51 638.2 213.29 582.9 275.97 561.27 337.66 577.98 390.87 636.16 435.18 728.04 478.56 836.87 514.47 938.63 542.64Q938.63 542.64 938.63 542.64" opacity="0.21"></path><path d="M904.63 427.65C971.84 453.47 997.69 468.99 980.25 474.81 925.68 480.64 843.33 477.08 748.78 465.67 653.62 456.17 571.53 442.16 510.24 427.81 472.25 422.23 457.6 423.97 461.09 438.64 481.78 470.58 509.44 520.74 537.06 589.43 568.53 670.84 592.5 760.99 606.46 849.6 619.68 949.9 594.06 947.27 559.36 835.45 533.54 740.27 500.88 650.34 461.51 580.24 421.12 539.4 372.39 530.52 315.3 550.08 256.6 595.51 190.11 653.46 118.84 712.89 51.43 772.03 -13.29 817.34 -67.81 845 -105.15 858.85 -121.1 854.28 -110 835.02 -75.6 804.83 -16.66 766.31 59.56 724.51 135.18 678.41 202.84 633.89 247.45 594.16 254.92 553.64 223.84 519.66 156.63 493.84 63.96 468.01 -31.18 451.58 -110.25 443.41 -164.35 434.44 -180.67 431.99 -159.66 433.34 -107.05 430.4 -30.92 426.4 56.05 416.8 146.96 396.27 230.03 363.78 299.13 316.09 354.4 254.6 392.98 178.68 417.83 92.66 430.54 6.34 436.16 -74.75 439.69 -139.12 438.3 -177.61 440.34 -183.43 448.85 -152.57 456.43 -92.44 472.52 -7.75 498.33 87.41 524.15 171.75 558.49 231.98 599.59 260.16 639.78 252.72 684.71 216.12 730.85 160.4 772.06 90.71 808.96 23.71 836.05 -30.81 850.99 -72.61 849.48 -92.17 828.05 -90.26 792.8 -71.09 740.33 -35.77 676.3 9.6 616.21 63.74 563.24 120.27 529.55 174.51 527.47 230.67 558.49 281.2 622.54 324.06 711.58 366.93 811.96 401.83 904.63 427.65Q904.63 427.65 904.63 427.65" opacity="0.14"></path><path d="M870.66 304.29C933.19 327.76 961.8 342.72 954.42 350.16 915.2 358.25 849.52 360.24 768.66 358.36 681.07 359.93 597.99 361.53 527.32 366.91 471.56 381.21 434.22 404.8 413.65 440.87 408.93 489.57 414.79 551.94 425.84 626.01 444.16 704.95 460.78 785.59 472.13 859.15 487.16 934.07 473.71 905.88 443.37 801.46 419.89 714.94 387.81 631.53 348.06 562.68 308.22 516.02 260.79 494.89 207.44 498.13 155.42 525.07 100.14 566.73 45.65 614.97 -1.57 669.05 -41.12 717.07 -67.17 754.28 -77.36 784.29 -67.86 799.89 -36.54 802.16 9.69 795.94 71.71 779.67 142.1 756.81 205.75 729.51 258.07 699.75 288.23 670.49 286.56 640.12 253.19 612.44 190.66 588.97 107.02 565.5 20.29 547.34 -55.21 533.45 -113.16 518.45 -141.65 505.5 -139.2 492.13 -109.24 474.3 -55.28 451.92 13.76 421.97 92.88 383.53 172.49 334.22 245.92 273.45 313.31 205.47 368.96 129.63 412.81 51.1 447.69 -21.56 473.71 -84.28 494 -128.42 509.32 -148.87 523.41 -141.1 539 -103.5 553.33 -43.7 571.65 34.94 595.12 121.46 618.59 198.99 646.1 257.52 676.04 290.5 704.71 294.36 733.32 272.87 758.68 232.58 779.08 176.23 791.71 116.64 793.01 62.14 785.34 12.51 763.39 -22.02 726.77 -39.96 684.1 -45.27 632.32 -35.16 577.64 -13.28 533.03 17.51 500.11 54.56 487.36 93.67 502.1 136.23 543.94 176.94 610.94 213.11 695.51 249.94 786.99 280.81 870.63 304.28Q870.66 304.29 870.66 304.29" opacity="0.84"></path><path d="M836.31 209.78C909.17 239.1 875.82 278.91 786.07 295.82 710.57 310.67 633.28 328.79 561.24 352.72 496.44 383.73 444.02 423.67 404.75 473.58 377.49 530.81 361.16 596.61 352.54 667.86 351.75 738.1 353.56 805.03 354.62 861.73 358.6 902.36 358.45 922.4 352.23 917.47 346.54 889.52 333.59 837.87 312.46 767.35 291.34 689.53 263.05 613.21 228.89 547.14 195.28 497.2 156.99 466.77 116.4 456.15 78.74 465.7 42.14 489.96 10.37 523.39 -13.56 566.03 -27.56 608.44 -27.98 645.99 -16.4 682.02 10.96 708.52 53.76 724.69 103.81 735.87 162.15 737.45 222.16 731.09 271.89 721.32 308.95 706.29 325.99 687.97 316.66 668.63 281.97 647.91 224.31 626.78 149.55 605.66 71.58 585.13 1.1 564.63 -57.79 543.11 -94.66 519.71 -107.08 492.88 -97.26 462.63 -65.36 426.26 -17.1 382.53 43.95 333.8 111.16 276.97 178.52 213.26 246.16 148.02 307.7 80.56 361.12 15.92 409.81 -39.49 450.43 -82.7 484.02 -107.74 514 -112.61 539.65 -94.22 562.59 -52.43 584.42 5.47 605.6 77.5 626.72 155.31 647.85 225.84 667.92 281.78 685.93 317.9 702.83 330.99 715.61 322.97 722.24 297.83 725.25 256.61 719.43 208.64 703.3 160.39 682.43 111.14 651.22 70.38 611.27 40.84 571.6 18.61 529.43 9 490.38 10.55 464.11 19.17 451.16 35.84 456.82 57.61 484.72 82.96 533.61 110.06 600.67 136.48 679.31 163.8 761.55 188.66 836.31 209.78Q836.31 209.78 836.31 209.78" opacity="0.56"></path><path d="M802.65 173.04C854.91 191.82 885.73 210.12 893.44 228.37 880.16 247.41 846.44 267.92 797.34 291.1 736.76 317.01 670.51 347.8 604.27 384.57 539.35 425.63 481.05 473.75 431.41 528.4 389 585.64 355.63 646.81 330.07 708.56 310.79 765.66 296.35 816.52 284.44 856.1 275.64 881.14 266.45 888.53 255.09 875.72 244.51 845.4 230.22 796.75 211.44 733.42 192.66 664.32 170.29 595.6 145.45 533.72 121.4 482.95 96.43 446.35 72.69 424.97 52.05 419.55 35.58 427.22 25.91 444.59 22.53 472.09 28.94 502.97 46.75 533.39 71.77 566.21 107.81 594.08 153.18 615.21 199.86 634.73 249.28 646.57 296.09 650.88 342.94 651.38 328.22 622.26 258.65 596.15 192.81 577.37 123.87 555.38 59.57 530.19 2.1 504.35 -39.69 474.14 -63.18 439.13 -70.05 402.28 -58.31 359.51 -31.13 311.05 8.77 260.98 57.79 206.15 111.21 148.73 168.95 93.69 225.55 40.55 278.19 -6.5 329.97 -43.41 376.07 -67.93 415.88 -76.27 453.97 -68.65 486.61 -42.74 514.11 0.77 540.96 55.41 563.81 120.32 582.59 189.42 601.37 252.75 615.18 305.2 623.76 342.77 632.43 364.47 612.8 312.02 582.37 257.46 558.67 215.26 529.02 176.36 495.89 143.72 434.29 87.87 501.54 95.53 592.49 118.72 664.03 135.89 736.78 154.26 802.62 173.03Q802.65 173.04 802.65 173.04" opacity="0.73"></path><path d="M768.62 204.9C847.85 237.77 855.82 282.88 801.4 341.68 703.96 406.34 589.37 491.82 485.51 592.89 392.93 690.93 324.77 782.49 277.02 840.71 238.54 851.56 205.85 802.83 172.99 699.41 140.13 578.61 110.21 472.03 91.74 404.25 82.54 382.48 99.41 397.61 148.93 429.68 209.72 478.85 289.46 517.01 362.81 533.13 393.14 547.69 371.85 538.88 292.62 506.02 172.57 473.16 61.19 419.35 -8.33 347.85 -33.22 274.78 -3.36 185.34 60.67 93.1 148.02 17.95 237.91 -32.02 313.29 -34.33 388.42 9.35 444.68 102.61 477.54 223.41 487.2 348.74 378.78 181.21 430.25 156.39 523.87 154.55 648.57 172.04 768.62 204.9Q768.62 204.9 768.62 204.9" opacity="0.86"></path><path d="M734.66 295.8C806.19 323.97 825.28 370.1 796 431.18 730.44 493.64 642.55 570.9 553.59 653.61 463.69 726.38 388.15 786.26 330.99 814.96 278.51 807.81 238.5 756.37 210.34 665.46 182.17 561.67 168.51 465.02 172.17 393.64 180.52 352.96 212.11 341.03 265.09 347.22 346.14 382.79 413.44 414.81 326.66 383.77 224.91 355.61 127.09 307.69 56.34 246.1 12.76 186.65 10.31 119.73 39.08 58.73 89.6 15.62 151.32 -2.32 208.95 17.69 270.11 68.42 318.36 153.64 346.53 257.42 374.71 348.35 380.13 411.21 367.78 439.02 358.96 430.97 341.2 400.96 327.58 365.11 335.73 319.32 368.05 286.01 432.27 272.37 523.65 260.1 632.88 267.63 734.63 295.79Q734.66 295.8 734.66 295.8" opacity="0.11"></path><path d="M700.66 418.25C763.19 441.72 789.07 481.66 779.83 533.15 743.42 583.31 685.42 641.23 620.11 697.57 547.8 742.69 481.03 773.36 427.21 778.56 374.25 759.32 334.48 708.98 311.01 631.46 287.54 544.94 282.59 460.98 294.87 392.13 308.01 341.39 338.15 310.4 379.69 294.99 430.8 295.34 440.89 294.16 360.66 266.46 277.02 242.99 194.81 206.73 129.08 163.6 65.29 104.01 86.27 42.27 136.43 78.84 175.51 130.48 209.94 204.91 233.41 291.42 256.89 368.96 267.18 428.82 268.78 465.27 274.72 477.28 280.49 471.51 294.61 457.15 324.5 431.57 373.32 410.29 442.34 400.8 525.27 389.99 616.99 394.77 700.63 418.24Q700.66 418.25 700.66 418.25" opacity="0.14"></path><path d="M666.5 535.12C718.81 553.9 747.23 582.9 752.07 617.78 739.19 650.57 709.01 684.98 669.82 714.28 622.83 734.72 575.47 742.4 534.71 731.71 492.79 706.41 460.36 660.73 441.59 597.41 422.81 528.3 419.46 459.24 428.83 398.27 437.05 346.28 455.11 306.05 477.48 277.24 492.07 257.31 502.33 243.21 501.45 230.84 482.84 221.29 446.81 208.3 394.5 189.52 328.64 170.74 263.33 147.96 207.55 124.96 140.26 97.19 103.11 99.26 120.11 147.64 137.37 194.85 157.17 256.3 175.95 325.41 194.73 388.73 210.7 442.02 225.99 481.08 244.47 505.54 267.89 517.78 299.76 521.95 340.44 517.26 393.88 512.15 458.18 511.91 527.72 509.56 600.64 516.35 666.5 535.12Q666.5 535.12 666.5 535.12" opacity="0.59"></path><path d="M632.66 611.18C710.83 657.99 613.29 676.26 557.95 563.46 529.78 459.66 533.12 361.35 545.64 293.15 536.29 241.21 500.19 204.54 428.66 176.38 326.9 148.21 239.73 133.88 194.09 148.9 161.89 180.18 165.07 255.66 193.24 359.46 221.4 450.37 269.22 516.97 338.34 553.39 420.9 569.31 530.9 583.01 632.66 611.18Q632.66 611.18 632.66 611.18" opacity="0.20"></path><path d="M598.63 623.24C684.17 660.8 659.33 644.35 621.78 529.45 584.22 391.95 548.17 268.43 462.63 230.87 324.23 193.32 242.01 255.95 279.57 393.45 317.12 508.35 460.23 585.69 598.63 623.24Q598.63 623.24 598.63 623.24" opacity="0.99"></path></g></svg>